<svg width="21" height="21" viewBox="0 0 21 21" fill="none" xmlns="http://www.w3.org/2000/svg">
<rect x="0.5" y="0.5" width="20" height="20" rx="10" fill="#7F56D9"/>
<path d="M14.3889 5.5H6.61111C5.99746 5.5 5.5 5.99746 5.5 6.61111V14.3889C5.5 15.0025 5.99746 15.5 6.61111 15.5H14.3889C15.0025 15.5 15.5 15.0025 15.5 14.3889V6.61111C15.5 5.99746 15.0025 5.5 14.3889 5.5Z" stroke="white" stroke-width="1.11111" stroke-linecap="round" stroke-linejoin="round"/>
<path d="M8.83377 9.94451C9.44742 9.94451 9.94488 9.44705 9.94488 8.8334C9.94488 8.21975 9.44742 7.72229 8.83377 7.72229C8.22012 7.72229 7.72266 8.21975 7.72266 8.8334C7.72266 9.44705 8.22012 9.94451 8.83377 9.94451Z" stroke="white" stroke-width="1.11111" stroke-linecap="round" stroke-linejoin="round"/>
<path d="M15.5003 12.1667L13.7859 10.4523C13.5775 10.244 13.295 10.127 13.0003 10.127C12.7057 10.127 12.4231 10.244 12.2148 10.4523L7.16699 15.5" stroke="white" stroke-width="1.11111" stroke-linecap="round" stroke-linejoin="round"/>
</svg>
