<svg width="21" height="20" viewBox="0 0 21 20" fill="none" xmlns="http://www.w3.org/2000/svg">
<rect x="0.5" width="20" height="20" rx="10" fill="#7F56D9"/>
<path d="M10.5 5.39087C10.6361 5.39089 10.7674 5.44084 10.8691 5.53127C10.9708 5.62169 11.0357 5.74629 11.0517 5.88142L11.0556 5.94642V14.8353C11.0554 14.9769 11.0012 15.1131 10.904 15.2161C10.8068 15.319 10.6739 15.381 10.5326 15.3893C10.3912 15.3976 10.252 15.3516 10.1434 15.2607C10.0348 15.1698 9.96506 15.0409 9.94833 14.9003L9.94444 14.8353V5.94642C9.94444 5.79908 10.003 5.65777 10.1072 5.55359C10.2113 5.4494 10.3527 5.39087 10.5 5.39087ZM8.27778 7.05754C8.42512 7.05754 8.56643 7.11607 8.67061 7.22025C8.7748 7.32444 8.83333 7.46575 8.83333 7.61309V13.1686C8.83333 13.316 8.7748 13.4573 8.67061 13.5615C8.56643 13.6657 8.42512 13.7242 8.27778 13.7242C8.13044 13.7242 7.98913 13.6657 7.88494 13.5615C7.78075 13.4573 7.72222 13.316 7.72222 13.1686V7.61309C7.72222 7.46575 7.78075 7.32444 7.88494 7.22025C7.98913 7.11607 8.13044 7.05754 8.27778 7.05754ZM12.7222 7.05754C12.8696 7.05754 13.0109 7.11607 13.1151 7.22025C13.2192 7.32444 13.2778 7.46575 13.2778 7.61309V13.1686C13.2778 13.316 13.2192 13.4573 13.1151 13.5615C13.0109 13.6657 12.8696 13.7242 12.7222 13.7242C12.5749 13.7242 12.4336 13.6657 12.3294 13.5615C12.2252 13.4573 12.1667 13.316 12.1667 13.1686V7.61309C12.1667 7.46575 12.2252 7.32444 12.3294 7.22025C12.4336 7.11607 12.5749 7.05754 12.7222 7.05754ZM6.05556 8.7242C6.2029 8.7242 6.34421 8.78273 6.44839 8.88692C6.55258 8.99111 6.61111 9.13241 6.61111 9.27976V11.502C6.61111 11.6493 6.55258 11.7906 6.44839 11.8948C6.34421 11.999 6.2029 12.0575 6.05556 12.0575C5.90821 12.0575 5.76691 11.999 5.66272 11.8948C5.55853 11.7906 5.5 11.6493 5.5 11.502V9.27976C5.5 9.13241 5.55853 8.99111 5.66272 8.88692C5.76691 8.78273 5.90821 8.7242 6.05556 8.7242ZM14.9444 8.7242C15.0805 8.72422 15.2119 8.77418 15.3135 8.8646C15.4152 8.95502 15.4802 9.07962 15.4961 9.21476L15.5 9.27976V11.502C15.4998 11.6436 15.4456 11.7798 15.3484 11.8827C15.2512 11.9857 15.1184 12.0477 14.977 12.056C14.8356 12.0643 14.6965 12.0183 14.5879 11.9274C14.4793 11.8365 14.4095 11.7076 14.3928 11.567L14.3889 11.502V9.27976C14.3889 9.13241 14.4474 8.99111 14.5516 8.88692C14.6558 8.78273 14.7971 8.7242 14.9444 8.7242Z" fill="white"/>
</svg>
