<svg width="21" height="21" viewBox="0 0 21 21" fill="none" xmlns="http://www.w3.org/2000/svg">
<rect x="0.5" y="0.5" width="20" height="20" rx="10" fill="#7F56D9"/>
<path d="M10.8149 16.4557L10.8089 16.4567L10.7732 16.4742L10.7632 16.4762L10.7561 16.4742L10.7205 16.4562C10.7151 16.4548 10.7111 16.4558 10.7084 16.4592L10.7064 16.4642L10.6979 16.6792L10.7004 16.6892L10.7054 16.6958L10.7576 16.7329L10.7652 16.735L10.7712 16.7329L10.8234 16.6958L10.8295 16.6877L10.8315 16.6792L10.8229 16.4647C10.8216 16.4593 10.8189 16.4563 10.8149 16.4557ZM10.9475 16.3989L10.9405 16.3999L10.8481 16.4466L10.843 16.4516L10.8415 16.4572L10.8506 16.6732L10.8531 16.6792L10.8571 16.6832L10.9581 16.7294C10.9644 16.7311 10.9693 16.7298 10.9726 16.7254L10.9746 16.7184L10.9576 16.4099C10.9559 16.4036 10.9525 16.3999 10.9475 16.3989ZM10.5883 16.3999C10.5861 16.3986 10.5835 16.3981 10.581 16.3987C10.5784 16.3992 10.5762 16.4008 10.5748 16.4029L10.5718 16.4099L10.5547 16.7184C10.555 16.7244 10.5579 16.7284 10.5632 16.7304L10.5708 16.7294L10.6717 16.6827L10.6768 16.6787L10.6783 16.6732L10.6873 16.4572L10.6858 16.4511L10.6808 16.4461L10.5883 16.3999Z" fill="white"/>
<path d="M9.06266 7.50894C9.36306 6.62984 10.5777 6.60321 10.9339 7.42906L10.964 7.50944L11.3694 8.69497C11.4623 8.96685 11.6125 9.21565 11.8097 9.42458C12.0069 9.63352 12.2467 9.79772 12.5128 9.90612L12.6218 9.94681L13.8073 10.3517C14.6864 10.6521 14.713 11.8668 13.8877 12.2229L13.8073 12.2531L12.6218 12.6585C12.3498 12.7513 12.1009 12.9014 11.8919 13.0986C11.6828 13.2959 11.5186 13.5357 11.4101 13.8018L11.3694 13.9103L10.9645 15.0963C10.6641 15.9754 9.44947 16.0021 9.09381 15.1767L9.06266 15.0963L8.65777 13.9108C8.56493 13.6388 8.41483 13.3899 8.21759 13.1809C8.02035 12.9719 7.78058 12.8076 7.51444 12.6992L7.40593 12.6585L6.2204 12.2536C5.3408 11.9532 5.31417 10.7385 6.14003 10.3828L6.2204 10.3517L7.40593 9.94681C7.67782 9.8539 7.92662 9.70377 8.13555 9.50654C8.34448 9.30931 8.50868 9.06956 8.61708 8.80348L8.65777 8.69497L9.06266 7.50894ZM10.0136 7.83345L9.60871 9.01898C9.46725 9.43357 9.23711 9.81233 8.93433 10.1289C8.63155 10.4455 8.26341 10.6922 7.85553 10.852L7.72994 10.8977L6.54441 11.3026L7.72994 11.7075C8.14453 11.849 8.5233 12.0791 8.83987 12.3819C9.15644 12.6847 9.40321 13.0528 9.563 13.4607L9.60871 13.5863L10.0136 14.7718L10.4185 13.5863C10.56 13.1717 10.7901 12.7929 11.0929 12.4764C11.3956 12.1598 11.7638 11.913 12.1717 11.7532L12.2973 11.708L13.4828 11.3026L12.2973 10.8977C11.8827 10.7563 11.5039 10.5261 11.1873 10.2234C10.8708 9.92059 10.624 9.55244 10.4642 9.14457L10.419 9.01898L10.0136 7.83345ZM14.0323 5.77686C14.1263 5.77686 14.2184 5.80322 14.2982 5.85295C14.3779 5.90267 14.4421 5.97378 14.4835 6.05817L14.5076 6.11694L14.6834 6.63235L15.1993 6.80817C15.2935 6.84016 15.376 6.8994 15.4365 6.97837C15.497 7.05734 15.5327 7.15248 15.539 7.25175C15.5454 7.35101 15.5221 7.44993 15.4722 7.53596C15.4222 7.62199 15.3479 7.69126 15.2586 7.73499L15.1993 7.7591L14.6839 7.93492L14.5081 8.45083C14.476 8.54498 14.4167 8.6275 14.3377 8.68793C14.2587 8.74836 14.1636 8.78398 14.0643 8.79028C13.9651 8.79657 13.8662 8.77326 13.7802 8.72329C13.6942 8.67333 13.6249 8.59896 13.5812 8.5096L13.5571 8.45083L13.3813 7.93543L12.8654 7.75961C12.7712 7.72761 12.6887 7.66837 12.6282 7.5894C12.5677 7.51044 12.532 7.41529 12.5257 7.31603C12.5193 7.21676 12.5426 7.11785 12.5925 7.03182C12.6424 6.94579 12.7168 6.87652 12.8061 6.83278L12.8654 6.80867L13.3808 6.63285L13.5566 6.11694C13.5905 6.01769 13.6546 5.93153 13.7399 5.87054C13.8252 5.80955 13.9275 5.77679 14.0323 5.77686Z" fill="white"/>
</svg>
