<svg width="50" height="51" viewBox="0 0 50 51" fill="none" xmlns="http://www.w3.org/2000/svg">
<rect y="0.278809" width="50" height="50" rx="25" fill="white"/>
<rect x="6.5" y="6.77881" width="37" height="37" rx="18.5" fill="white"/>
<path fill-rule="evenodd" clip-rule="evenodd" d="M23.0549 11.7893C21.8616 11.7893 20.8673 12.7004 20.7624 13.8891C20.5443 16.3726 20.4892 18.8677 20.5975 21.3584L20.2074 21.3862L17.9103 21.5527C17.5749 21.5772 17.2515 21.6884 16.9719 21.8754C16.6923 22.0624 16.4661 22.3188 16.3153 22.6195C16.1646 22.9202 16.0945 23.2549 16.112 23.5908C16.1294 23.9267 16.2338 24.2524 16.4149 24.5358C18.1066 27.1798 20.2844 29.479 22.8329 31.3114L23.7517 31.9728C24.1158 32.2339 24.5525 32.3743 25.0005 32.3743C25.4484 32.3743 25.8852 32.2339 26.2492 31.9728L27.168 31.3114C29.719 29.4819 31.8973 27.1822 33.586 24.5358C33.7671 24.2524 33.8715 23.9267 33.8889 23.5908C33.9064 23.2549 33.8363 22.9202 33.6856 22.6195C33.5348 22.3188 33.3086 22.0624 33.029 21.8754C32.7494 21.6884 32.4261 21.5772 32.0906 21.5527L29.7935 21.3862L29.4035 21.3584C29.5114 18.8686 29.4559 16.3727 29.2385 13.8891C29.189 13.3155 28.926 12.7813 28.5014 12.3925C28.0769 12.0036 27.5218 11.7883 26.946 11.7893H23.0549ZM22.9685 22.3729C22.7928 19.6173 22.8253 16.8525 23.0657 14.1018H26.9353C27.1761 16.8524 27.2091 19.6173 27.0339 22.3729C27.0243 22.5256 27.0452 22.6788 27.0952 22.8234C27.1453 22.968 27.2236 23.1013 27.3256 23.2155C27.4275 23.3296 27.5511 23.4224 27.6892 23.4884C27.8273 23.5544 27.9772 23.5924 28.13 23.6C28.6295 23.6247 29.128 23.6555 29.6255 23.6925L31.292 23.8143C29.8107 25.9933 27.9582 27.8953 25.8191 29.4337L25.002 30.0211L24.1818 29.4337C22.0427 27.8953 20.1903 25.9933 18.7089 23.8143L20.3755 23.691C20.8739 23.655 21.3724 23.6247 21.8709 23.6C22.0239 23.5926 22.1739 23.5548 22.3122 23.4888C22.4504 23.4229 22.5742 23.3302 22.6764 23.216C22.7785 23.1018 22.8569 22.9685 22.9071 22.8237C22.9572 22.679 22.9781 22.5257 22.9685 22.3729Z" fill="#9747FF"/>
<path d="M15.3643 32.9871C15.3643 32.6804 15.2424 32.3863 15.0256 32.1695C14.8088 31.9526 14.5147 31.8308 14.208 31.8308C13.9014 31.8308 13.6073 31.9526 13.3904 32.1695C13.1736 32.3863 13.0518 32.6804 13.0518 32.9871V36.0704C13.0518 37.5596 14.2604 38.7683 15.7497 38.7683H34.2497C34.9652 38.7683 35.6514 38.4841 36.1574 37.9781C36.6633 37.4722 36.9476 36.7859 36.9476 36.0704V32.9871C36.9476 32.6804 36.8258 32.3863 36.6089 32.1695C36.3921 31.9526 36.098 31.8308 35.7913 31.8308C35.4847 31.8308 35.1906 31.9526 34.9737 32.1695C34.7569 32.3863 34.6351 32.6804 34.6351 32.9871V36.0704C34.6351 36.1726 34.5945 36.2706 34.5222 36.3429C34.4499 36.4152 34.3519 36.4558 34.2497 36.4558H15.7497C15.6475 36.4558 15.5494 36.4152 15.4771 36.3429C15.4049 36.2706 15.3643 36.1726 15.3643 36.0704V32.9871Z" fill="#9747FF"/>
</svg>
