<svg width="50" height="51" viewBox="0 0 50 51" fill="none" xmlns="http://www.w3.org/2000/svg">
<rect y="0.278809" width="50" height="50" rx="25" fill="white"/>
<rect x="6.5" y="6.77881" width="37" height="37" rx="18.5" fill="white"/>
<path d="M39.2831 25.6193C39.2831 18.0748 33.167 11.9587 25.6225 11.9587C18.078 11.9587 11.9619 18.0748 11.9619 25.6193C11.9619 32.4377 16.9574 38.0892 23.488 39.114V29.5681H20.0195V25.6193H23.488V22.6097C23.488 19.1861 25.5275 17.2949 28.6479 17.2949C30.1425 17.2949 31.7058 17.5617 31.7058 17.5617V20.9235H29.9832C28.2862 20.9235 27.757 21.9766 27.757 23.0569V25.6193H31.5457L30.94 29.5681H27.757V39.114C34.2876 38.0892 39.2831 32.4378 39.2831 25.6193Z" fill="#1877F2"/>
</svg>
