<svg width="50" height="51" viewBox="0 0 50 51" fill="none" xmlns="http://www.w3.org/2000/svg">
<rect y="0.278809" width="50" height="50" rx="25" fill="white"/>
<rect x="6.5" y="6.77881" width="37" height="37" rx="18.5" fill="white"/>
<path d="M31.9653 12.6987H18.599C15.3423 12.6987 12.7021 15.3389 12.7021 18.5956V31.9619C12.7021 35.2186 15.3423 37.8587 18.599 37.8587H31.9653C35.222 37.8587 37.8621 35.2186 37.8621 31.9619V18.5956C37.8621 15.3389 35.222 12.6987 31.9653 12.6987Z" fill="white"/>
<path d="M31.9653 12.6987H18.599C15.3423 12.6987 12.7021 15.3389 12.7021 18.5956V31.9619C12.7021 35.2186 15.3423 37.8587 18.599 37.8587H31.9653C35.222 37.8587 37.8621 35.2186 37.8621 31.9619V18.5956C37.8621 15.3389 35.222 12.6987 31.9653 12.6987Z" fill="#0A66C2"/>
<path d="M30.8559 34.093H33.7325C33.8368 34.093 33.9368 34.0516 34.0105 33.9779C34.0842 33.9042 34.1256 33.8042 34.1257 33.7L34.1271 27.6221C34.1271 24.4453 33.4426 22.0035 29.7302 22.0035C28.319 21.9511 26.9882 22.6785 26.2701 23.8933C26.2665 23.8992 26.2612 23.9038 26.2548 23.9064C26.2485 23.9089 26.2414 23.9094 26.2348 23.9076C26.2282 23.9058 26.2223 23.9019 26.2181 23.8964C26.2139 23.891 26.2116 23.8843 26.2116 23.8775V22.6899C26.2116 22.5857 26.1702 22.4857 26.0964 22.412C26.0227 22.3382 25.9227 22.2968 25.8185 22.2968H23.0885C22.9842 22.2968 22.8842 22.3382 22.8105 22.412C22.7368 22.4857 22.6954 22.5857 22.6954 22.6899V33.6994C22.6954 33.8037 22.7368 33.9037 22.8105 33.9774C22.8842 34.0511 22.9842 34.0925 23.0885 34.0925H25.965C26.0693 34.0925 26.1692 34.0511 26.243 33.9774C26.3167 33.9037 26.3581 33.8037 26.3581 33.6994V28.2573C26.3581 26.7185 26.65 25.2282 28.5577 25.2282C30.4384 25.2282 30.4627 26.9891 30.4627 28.3569V33.6999C30.4627 33.8042 30.5041 33.9041 30.5779 33.9779C30.6516 34.0516 30.7516 34.093 30.8559 34.093ZM16.4365 18.559C16.4365 19.725 17.3964 20.6844 18.5625 20.6844C19.7284 20.6843 20.6877 19.7243 20.6877 18.5585C20.6875 17.3927 19.7281 16.4333 18.5622 16.4333C17.3959 16.4333 16.4365 17.393 16.4365 18.559ZM17.1205 34.093H20.0008C20.1051 34.093 20.205 34.0516 20.2788 33.9779C20.3525 33.9041 20.3939 33.8042 20.3939 33.6999V22.6899C20.3939 22.5857 20.3525 22.4857 20.2788 22.412C20.205 22.3382 20.1051 22.2968 20.0008 22.2968H17.1205C17.0162 22.2968 16.9162 22.3382 16.8425 22.412C16.7688 22.4857 16.7273 22.5857 16.7273 22.6899V33.6999C16.7273 33.8042 16.7688 33.9041 16.8425 33.9779C16.9162 34.0516 17.0162 34.093 17.1205 34.093Z" fill="white"/>
</svg>
