<svg width="50" height="51" viewBox="0 0 50 51" fill="none" xmlns="http://www.w3.org/2000/svg">
<rect x="0.189453" y="0.278809" width="49.62" height="50" rx="24.81" fill="white"/>
<g clip-path="url(#clip0_63_511)">
<rect x="7" y="6" width="36.9955" height="37.2788" rx="18.4977" fill="white"/>
<path d="M13.0699 23.7693C13.0693 25.9811 13.6472 28.1407 14.7461 30.0442L12.9648 36.5479L19.6206 34.8028C21.4615 35.8049 23.5241 36.33 25.6201 36.3302H25.6256C32.5449 36.3302 38.1774 30.6998 38.1803 23.7792C38.1816 20.4257 36.8769 17.2723 34.5062 14.8999C32.136 12.5277 28.9838 11.2205 25.6251 11.219C18.705 11.219 13.0729 16.8491 13.07 23.7693" fill="url(#paint0_linear_63_511)"/>
<path d="M7.15754 24.4105C7.15652 27.6554 8.00426 30.8231 9.61591 33.6152L7.00293 43.1556L16.7664 40.5956C19.4565 42.0623 22.4853 42.8356 25.5673 42.8368H25.5753C35.7255 42.8368 43.9884 34.5765 43.9928 24.4253C43.9945 19.5056 42.0803 14.8794 38.6032 11.3994C35.1257 7.91971 30.502 6.00202 25.5753 6C15.4233 6 7.16158 14.2591 7.15754 24.4105ZM12.972 33.1343L12.6075 32.5557C11.075 30.119 10.2661 27.3031 10.2673 24.4117C10.2705 15.9741 17.1373 9.10946 25.5811 9.10946C29.6702 9.11119 33.5131 10.7052 36.4035 13.5974C39.2937 16.4898 40.8842 20.3347 40.8832 24.4241C40.8794 32.8617 34.0124 39.7272 25.5753 39.7272H25.5692C22.822 39.7258 20.1277 38.988 17.778 37.5938L17.2188 37.2622L11.4249 38.7812L12.972 33.1343Z" fill="url(#paint1_linear_63_511)"/>
<path d="M20.972 16.7136C20.6273 15.9473 20.2644 15.9319 19.9366 15.9184C19.6681 15.9069 19.3612 15.9077 19.0546 15.9077C18.7477 15.9077 18.2491 16.0232 17.8276 16.4834C17.4057 16.944 16.2168 18.0572 16.2168 20.3212C16.2168 22.5853 17.8659 24.7734 18.0958 25.0808C18.3259 25.3875 21.2793 30.1823 25.9568 32.0269C29.8442 33.5598 30.6353 33.2549 31.479 33.1781C32.3228 33.1015 34.2018 32.0652 34.5851 30.9906C34.9688 29.9162 34.9688 28.9952 34.8537 28.8027C34.7387 28.611 34.4318 28.4958 33.9716 28.2658C33.5114 28.0358 31.2488 26.9223 30.8271 26.7687C30.4051 26.6153 30.0984 26.5387 29.7915 26.9995C29.4846 27.4595 28.6033 28.4958 28.3347 28.8027C28.0664 29.1104 27.7978 29.1486 27.3377 28.9185C26.8772 28.6876 25.3952 28.2022 23.6369 26.6346C22.2688 25.4148 21.3452 23.9085 21.0768 23.4477C20.8083 22.9877 21.048 22.7383 21.2788 22.509C21.4855 22.3028 21.7391 21.9716 21.9694 21.703C22.1989 21.4342 22.2755 21.2425 22.4289 20.9356C22.5825 20.6284 22.5056 20.3597 22.3908 20.1295C22.2755 19.8993 21.3812 17.6234 20.972 16.7136Z" fill="white"/>
</g>
<defs>
<linearGradient id="paint0_linear_63_511" x1="1273.74" y1="2544.11" x2="1273.74" y2="11.219" gradientUnits="userSpaceOnUse">
<stop stop-color="#1FAF38"/>
<stop offset="1" stop-color="#60D669"/>
</linearGradient>
<linearGradient id="paint1_linear_63_511" x1="1856.49" y1="3721.56" x2="1856.49" y2="6" gradientUnits="userSpaceOnUse">
<stop stop-color="#F9F9F9"/>
<stop offset="1" stop-color="white"/>
</linearGradient>
<clipPath id="clip0_63_511">
<rect x="7" y="6" width="36.9955" height="37.2788" rx="18.4977" fill="white"/>
</clipPath>
</defs>
</svg>
